{"title":"The Lone Ranger 2013 BRRip 720p x264 AAC - PRiSTiNE [P2PDL]","uid":9009209,"size":953774234,"categoryP":"video","categoryS":"hd___movies","magnet":"?xt=urn:btih:275b4d429033466541dd616a76c8864bf86b0410&amp;dn=The+Lone+Ranger+2013+BRRip+720p+x264+AAC+-+PRiSTiNE+%5BP2PDL%5D&amp;tr=udp%3A%2F%2Ftracker.openbittorrent.com%3A80&amp;tr=udp%3A%2F%2Fopen.demonii.com%3A1337&amp;tr=udp%3A%2F%2Ftracker.coppersurfer.tk%3A6969&amp;tr=udp%3A%2F%2Fexodus.desync.com%3A6969","seeders":7,"leechers":0,"uploader":"ValidusVyto","files":-1,"time":1381095082,"description":"_______ Visit us at our Semi Public Bittorrent Community ________\n  &lt;a href=&quot;\nhttp://p2pdl.com&quot; rel=&quot;nofollow&quot; target=&quot;_NEW&quot;&gt;\nhttp://p2pdl.com&lt;/a&gt;  _____________________________ &lt;a href=&quot; http://p2pdl.com&quot; rel=&quot;nofollow&quot; target=&quot;_NEW&quot;&gt; http://p2pdl.com&lt;/a&gt;\n\n\n\nThe Lone Ranger 2013 BRRip 720p x264 AAC - PRiSTiNE\n\n\nGenre: Action | Adventure | Western\nPlot: Native American warrior Tonto recounts the untold tales that transformed John Reid,\na man of the law, into a legend of justice. \t\t\t\t\t\t\t\t\t\t\t\t\t\t\t\nDirector: Gore Verbinski\nStars: Johnny Depp, Armie Hammer, William Fichtner.\nRated: PG-13 for sequences of intense action and violence, and some suggestive material.\n\nIMDb: &lt;a href=&quot;\nhttp://www.imdb.com/title/tt1210819/&quot; rel=&quot;nofollow&quot; target=&quot;_NEW&quot;&gt;\nhttp://www.imdb.com/title/tt1210819/&lt;/a&gt;\n\nTrailer:\n\n\nFormat                         : MPEG-4\nFile size                      : 902 MiB\nDuration                       : 2h 29mn\nOverall bit rate               : 843 Kbps\n\nVideo\nFormat                         : AVC\nBit rate                       : 760 Kbps\nWidth                          : 1 280 pixels\nHeight                         : 528 pixels\nDisplay aspect ratio           : 2.40:1\nFrame rate mode                : Constant\nFrame rate                     : 23.976 fps\nColor space                    : YUV\nChroma subsampling             : 4:2:0\nBit depth                      : 10 bits\nStream size                    : 813 MiB (90%)\nWriting library                : x264 core 138 r2358\n\nAudio\nFormat                         : AAC\nBit rate                       : 80.0 Kbps\nChannel(s)                     : 2 channels\nChannel positions              : Front: L R\nSampling rate                  : 44.1 KHz\nStream size                    : 85.5 MiB (9%)\nLanguage                       : English\nSubtitle                       : Yes (English)\n\nSource                         : 720p.BluRay.DTS.x264-PublicHD\n &lt;a href=&quot;\nhttp://someimage.com/JDKeUEq&quot; rel=&quot;nofollow&quot; target=&quot;_NEW&quot;&gt;\nhttp://someimage.com/JDKeUEq&lt;/a&gt; &lt;a href=&quot;\nhttp://someimage.com/c4ZCuYK&quot; rel=&quot;nofollow&quot; target=&quot;_NEW&quot;&gt;\nhttp://someimage.com/c4ZCuYK&lt;/a&gt; &lt;a href=&quot;\nhttp://someimage.com/NVyCjaU&quot; rel=&quot;nofollow&quot; target=&quot;_NEW&quot;&gt;\nhttp://someimage.com/NVyCjaU&lt;/a&gt; &lt;a href=&quot;\nhttp://someimage.com/Hj8tl0h&quot; rel=&quot;nofollow&quot; target=&quot;_NEW&quot;&gt;\nhttp://someimage.com/Hj8tl0h&lt;/a&gt; &lt;a href=&quot;\nhttp://someimage.com/ZWbzpMD&quot; rel=&quot;nofollow&quot; target=&quot;_NEW&quot;&gt;\nhttp://someimage.com/ZWbzpMD&lt;/a&gt; &lt;a href=&quot;\nhttp://someimage.com/ahTdbJF&quot; rel=&quot;nofollow&quot; target=&quot;_NEW&quot;&gt;\nhttp://someimage.com/ahTdbJF&lt;/a&gt; &lt;a href=&quot;\nhttp://someimage.com/wxg9iFC&quot; rel=&quot;nofollow&quot; target=&quot;_NEW&quot;&gt;\nhttp://someimage.com/wxg9iFC&lt;/a&gt; &lt;a href=&quot;\nhttp://someimage.com/sFnZOli&quot; rel=&quot;nofollow&quot; target=&quot;_NEW&quot;&gt;\nhttp://someimage.com/sFnZOli&lt;/a&gt;\n\n----------------------------------------------------------------------------------------------------\n\n\nEncoded using revolutionary 10bit encoding, which enables us to provide you more crispier \nand sharper images at small sizes, just make sure you follow our instructions without a fault.\nRecommend to you to use latest version of VLC player. Install K-Lite Codec Pack or shark007 codecs\nin case of any kind of problem in playback (For non-VLC Media Player users). Alternatively, install\nCore AVC codecs, the fastest decoder that there is coupled with Community Center Codec Pack and play\non Windows Media Player Classic. Check sample to be sure.\nEnjoy!\n\nEncoder Notes:Looking For Early Access To Anything You Can Provide DVDScr, R5, DVDR, BluRay, Direct\nAudio, Music Releases and Seedboxes. We require dedicated servers, so as to do more \nand fast releases of movies.\nIf You Got anything to offer please contact us at &quot;&lt;a class=&quot;__cf_email__&quot; href=&quot;/cdn-cgi/l/email-protection&quot; data-cfemail=&quot;d2a2a0b592baa7a1bafcb1bdbf&quot;&gt;[email&amp;#160;protected]&lt;/a&gt;&lt;script cf-hash='f9e31' type=&quot;text/javascript&quot;&gt;\n/* &lt;![CDATA[ */!function(){try{var t=&quot;currentScript&quot;in document?document.currentScript:function(){for(var t=document.getElementsByTagName(&quot;script&quot;),e=t.length;e--;)if(t[e].getAttribute(&quot;cf-hash&quot;))return t[e]}();if(t&amp;&amp;t.previousSibling){var e,r,n,i,c=t.previousSibling,a=c.getAttribute(&quot;data-cfemail&quot;);if(a){for(e=&quot;&quot;,r=parseInt(a.substr(0,2),16),n=2;a.length-n;n+=2)i=parseInt(a.substr(n,2),16)^r,e+=String.fromCharCode(i);e=document.createTextNode(e),c.parentNode.replaceChild(e,c)}}}catch(u){}}();/* ]]&gt; */&lt;/script&gt;&quot;.\n\nFacebook Fan Page:  \nSearch P2PDL on FB and hit like!!!\n\nFor more of our team uploads visit @                                             &lt;a href=&quot; http://thepiratebay.se/user/vitamin_x&quot; rel=&quot;nofollow&quot; target=&quot;_NEW&quot;&gt; http://thepiratebay.se/user/vitamin_x&lt;/a&gt;\t","torrent":{"xt":"urn:btih:275b4d429033466541dd616a76c8864bf86b0410","amp;dn":"The+Lone+Ranger+2013+BRRip+720p+x264+AAC+-+PRiSTiNE+%5BP2PDL%5D","amp;tr":["udp%3A%2F%2Ftracker.openbittorrent.com%3A80","udp%3A%2F%2Fopen.demonii.com%3A1337","udp%3A%2F%2Ftracker.coppersurfer.tk%3A6969","udp%3A%2F%2Fexodus.desync.com%3A6969"],"infoHash":"275b4d429033466541dd616a76c8864bf86b0410","infoHashBuffer":{"type":"Buffer","data":[39,91,77,66,144,51,70,101,65,221,97,106,118,200,134,75,248,107,4,16]},"announce":[],"urlList":[]}}